<?xml version="1.0" encoding="UTF-8"?><svg height="128" width="128" version="1.1" viewBox="0 0 64 64" xmlns="http://www.w3.org/2000/svg" xmlns:cc="http://creativecommons.org/ns#" xmlns:dc="http://purl.org/dc/elements/1.1/" xmlns:rdf="http://www.w3.org/1999/02/22-rdf-syntax-ns#" xmlns:xlink="http://www.w3.org/1999/xlink"><defs><linearGradient id="a" x1="32.262" x2="32.262" y1="64" gradientUnits="userSpaceOnUse"><stop stop-color="#37c837" offset="0"/><stop stop-color="#217821" offset="1"/></linearGradient></defs><metadata><rdf:RDF><cc:Work rdf:about=""><dc:format>image/svg+xml</dc:format><dc:type rdf:resource="http://purl.org/dc/dcmitype/StillImage"/><dc:title/></cc:Work></rdf:RDF></metadata><rect width="64" height="64" fill="url(#a)"/><g fill="#fff" fill-opacity=".73725"><path d="m5.3125 31.188 26.375-16.75 1.1875 36.25z"/><path d="m8.6875 41.812 35.25-26.875 11.5 27.062z"/><path d="m33.562 17.5 25.5 19-39.312 10.375z"/></g><g transform="translate(20,20)"><path d="m0 0h24v24h-24z" fill="none"/><path d="m12 20-0.86-0.86c-1.18-1.18-1.17-3.1 0.02-4.26l0.84-0.82c-0.39-0.04-0.68-0.06-1-0.06-2.67 0-8 1.34-8 4v2zm-1-8c2.21 0 4-1.79 4-4s-1.79-4-4-4-4 1.79-4 4 1.79 4 4 4" fill="#008000"/><path d="m16.18 19.78c-0.39 0.39-1.03 0.39-1.42 0l-2.07-2.09c-0.38-0.39-0.38-1.01 0-1.39l0.01-0.01c0.39-0.39 1.02-0.39 1.4 0l1.37 1.37 4.43-4.46c0.39-0.39 1.02-0.39 1.41 0l0.01 0.01c0.38 0.39 0.38 1.01 0 1.39z" fill="#008000"/></g><style type="text/css">.st0{fill:#683C11;}.st1{fill:#BE1622;}.st2{fill:#008D36;}.st3{fill:#F39200;}.st4{fill:#FAC927;}.st5{fill:#297732;}.st6{fill:#A3195B;}.st7{fill:#CFB32F;}.st8{fill:#E47C08;}.st9{fill:#E0B100;}.st10{fill:#AF3D18;}.st11{fill:#CBBBA0;}.st12{fill:#634E42;}.st13{fill:#7B6A58;}.st14{fill:#CE6E15;}.st15{fill:#FAC18A;}.st16{fill:#DFA278;}.st17{fill:#432918;}</style><style type="text/css">.st0{fill:#534741;}.st1{fill:#8F7A25;}.st2{fill:#998675;}.st3{fill:#736357;}.st4{fill:#574A16;}.st5{fill:#803301;}.st6{fill:#B84A01;}.st7{fill:#D6B238;}.st8{fill:#CA9562;}.st9{fill:#913A01;}.st10{fill:#CCCCCC;}.st11{fill:#D14E1F;}.st12{fill:#E0861B;}.st13{fill:#301C0F;}.st14{fill:#687A00;}</style></svg>