<svg xmlns="http://www.w3.org/2000/svg" height="64" width="64" xmlns:v="https://vecta.io/nano"><defs><linearGradient y2="0" x2="32.262" y1="64" x1="32.262" id="A" gradientUnits="userSpaceOnUse"><stop offset="0" stop-color="#37c837"/><stop offset="1" stop-color="#217821"/></linearGradient></defs><g fill="#fff"><path d="M5.313 31.188l26.375-16.75 1.188 36.25z" fill-opacity=".737"/><path d="M8.688 41.813l35.25-26.875L55.438 42z" fill-opacity=".737"/><path d="M33.563 17.5l25.5 19L19.75 46.875z" fill-opacity=".737"/></g><path d="M0 0h64v64H0z" fill="url(#A)"/><g fill="#fff"><path d="M106.473 36.675l-29.115 65.928L3.034 69.78 32.148 3.852z" fill-opacity=".505"/><path d="M112.74 56.452L55.32 100.005 6.22 35.27 63.64-8.283z" fill-opacity=".505"/></g><path d="M40.247 43.627l-1.03-1.03c-1.412-1.412-1.4-3.7.024-5.097l1.005-.98-1.197-.072c-3.195 0-9.573 1.603-9.573 4.786v2.393zm-1.197-9.573c2.644 0 4.786-2.142 4.786-4.786s-2.142-4.786-4.786-4.786-4.786 2.142-4.786 4.786 2.142 4.786 4.786 4.786m6.2 9.3c-.467.467-1.232.467-1.7 0l-2.477-2.5c-.455-.467-.455-1.2 0-1.663l.012-.012c.467-.467 1.22-.467 1.675 0l1.64 1.64 5.3-5.337a1.19 1.19 0 0 1 1.687 0l.012.012c.455.467.455 1.2 0 1.663z" fill="green"/></svg>