<?xml version="1.0" encoding="UTF-8" standalone="no"?>
<svg
   xmlns:dc="http://purl.org/dc/elements/1.1/"
   xmlns:cc="http://creativecommons.org/ns#"
   xmlns:rdf="http://www.w3.org/1999/02/22-rdf-syntax-ns#"
   xmlns:svg="http://www.w3.org/2000/svg"
   xmlns="http://www.w3.org/2000/svg"
   xmlns:xlink="http://www.w3.org/1999/xlink"
   id="SVGRoot"
   version="1.1"
   viewBox="0 0 64 64"
   height="64px"
   width="64px">
  <defs
     id="defs851">
    <linearGradient
       id="linearGradient1533">
      <stop
         id="stop1529"
         offset="0"
         style="stop-color:#37c837;stop-opacity:1" />
      <stop
         id="stop1531"
         offset="1"
         style="stop-color:#217821;stop-opacity:1" />
    </linearGradient>
    <linearGradient
       gradientUnits="userSpaceOnUse"
       y2="0"
       x2="32.261719"
       y1="64"
       x1="32.261719"
       id="linearGradient1535"
       xlink:href="#linearGradient1533" />
  </defs>
  <metadata
     id="metadata854">
    <rdf:RDF>
      <cc:Work
         rdf:about="">
        <dc:format>image/svg+xml</dc:format>
        <dc:type
           rdf:resource="http://purl.org/dc/dcmitype/StillImage" />
        <dc:title></dc:title>
      </cc:Work>
    </rdf:RDF>
  </metadata>
  <g
     id="layer1">
    <rect
       y="0"
       x="0"
       height="64"
       width="64"
       id="rect1527"
       style="opacity:1;vector-effect:none;fill:url(#linearGradient1535);fill-opacity:1;stroke:none;stroke-width:6.04724407;stroke-linecap:butt;stroke-linejoin:miter;stroke-miterlimit:4;stroke-dasharray:none;stroke-dashoffset:0;stroke-opacity:1" />
    <g
       id="g1457">
      <path
         style="fill:#ffffff;stroke:none;stroke-width:1px;stroke-linecap:butt;stroke-linejoin:miter;stroke-opacity:1;fill-opacity:0.73725492"
         d="m 5.3125,31.1875 26.375,-16.75 1.1875,36.25 z"
         id="path1416" />
      <path
         style="fill:#ffffff;stroke:none;stroke-width:1px;stroke-linecap:butt;stroke-linejoin:miter;stroke-opacity:1;fill-opacity:0.73725492"
         d="M 8.6875,41.8125 43.9375,14.9375 55.4375,42 Z"
         id="path1418" />
      <path
         style="fill:#ffffff;stroke:none;stroke-width:1px;stroke-linecap:butt;stroke-linejoin:miter;stroke-opacity:1;fill-opacity:0.73725492"
         d="m 33.5625,17.5 25.5,19 L 19.75,46.875 Z"
         id="path1420" />
    </g>
    <g
       transform="translate(20,20)"
       id="g1967">
      <path
         style="fill:none"
         d="M 0,0 H 24 V 24 H 0 Z"
         id="path1950" />
      <path
         style="fill:#008000"
         d="M 12,20 11.14,19.14 C 9.96,17.96 9.97,16.04 11.16,14.88 L 12,14.06 C 11.61,14.02 11.32,14 11,14 8.33,14 3,15.34 3,18 v 2 z m -1,-8 c 2.21,0 4,-1.79 4,-4 C 15,5.79 13.21,4 11,4 8.79,4 7,5.79 7,8 c 0,2.21 1.79,4 4,4"
         id="path1952" />
      <path
         style="fill:#008000"
         d="m 16.18,19.78 c -0.39,0.39 -1.03,0.39 -1.42,0 l -2.07,-2.09 c -0.38,-0.39 -0.38,-1.01 0,-1.39 l 0.01,-0.01 c 0.39,-0.39 1.02,-0.39 1.4,0 l 1.37,1.37 4.43,-4.46 c 0.39,-0.39 1.02,-0.39 1.41,0 l 0.01,0.01 c 0.38,0.39 0.38,1.01 0,1.39 z"
         id="path1954" />
    </g>
  </g>
  <style
     type="text/css"
     id="style1168">
	.st0{fill:#683C11;}
	.st1{fill:#BE1622;}
	.st2{fill:#008D36;}
	.st3{fill:#F39200;}
	.st4{fill:#FAC927;}
	.st5{fill:#297732;}
	.st6{fill:#A3195B;}
	.st7{fill:#CFB32F;}
	.st8{fill:#E47C08;}
	.st9{fill:#E0B100;}
	.st10{fill:#AF3D18;}
	.st11{fill:#CBBBA0;}
	.st12{fill:#634E42;}
	.st13{fill:#7B6A58;}
	.st14{fill:#CE6E15;}
	.st15{fill:#FAC18A;}
	.st16{fill:#DFA278;}
	.st17{fill:#432918;}
</style>
  <style
     type="text/css"
     id="style1356">
	.st0{fill:#534741;}
	.st1{fill:#8F7A25;}
	.st2{fill:#998675;}
	.st3{fill:#736357;}
	.st4{fill:#574A16;}
	.st5{fill:#803301;}
	.st6{fill:#B84A01;}
	.st7{fill:#D6B238;}
	.st8{fill:#CA9562;}
	.st9{fill:#913A01;}
	.st10{fill:#CCCCCC;}
	.st11{fill:#D14E1F;}
	.st12{fill:#E0861B;}
	.st13{fill:#301C0F;}
	.st14{fill:#687A00;}
</style>
</svg>
